<svg width="50" height="50" viewBox="0 0 50 50" fill="none" xmlns="http://www.w3.org/2000/svg">
<rect x="0.5" y="0.5" width="49" height="49" rx="24.5" stroke="white"/>
<path d="M25.0036 12.8666C24.8572 12.866 24.7131 12.9025 24.5846 12.9727C24.4562 13.0428 24.3476 13.1444 24.2689 13.2678C24.2689 13.2678 22.5223 16.0151 20.7718 19.2515C19.8966 20.8698 19.0177 22.612 18.3495 24.2163C17.6814 25.8205 17.2002 27.2479 17.2002 28.4666C17.2002 32.764 20.7028 36.2666 25.0002 36.2666C25.5385 36.2666 26.0647 36.2121 26.5727 36.1075C29.6194 35.4842 32.0177 33.0859 32.6411 30.0392C32.6413 30.0381 32.6409 30.0369 32.6411 30.0358C32.6931 29.7828 32.7329 29.525 32.7596 29.2639C32.7596 29.2634 32.7595 29.2628 32.7596 29.2622C32.7863 29.0005 32.8002 28.7352 32.8002 28.4666C32.8002 24.1593 27.7829 15.9124 25.7314 13.2678C25.7207 13.2516 25.7094 13.2358 25.6976 13.2204C25.6175 13.1114 25.5131 13.0226 25.3926 12.9612C25.2721 12.8997 25.1388 12.8674 25.0036 12.8666ZM25.0002 15.4497V34.5333C21.6397 34.5333 18.9335 31.8271 18.9335 28.4666C18.9335 27.771 19.319 26.4004 19.9508 24.8832C20.5827 23.366 21.4372 21.6624 22.2952 20.0759C23.6461 17.5783 24.4855 16.2764 25.0002 15.4497Z" fill="white"/>
</svg>
