<svg width="50" height="50" viewBox="0 0 50 50" fill="none" xmlns="http://www.w3.org/2000/svg">
<rect x="0.5" y="0.5" width="49" height="49" rx="24.5" stroke="white"/>
<path d="M24.2508 32.0959C24.2508 33.9425 22.7522 35.4413 20.9062 35.4413C19.0602 35.4413 17.5615 33.9425 17.5615 32.0959C17.5615 30.2492 19.0602 28.7504 20.9062 28.7504H24.2508V32.0959Z" stroke="white"/>
<path d="M17.5615 24.4047C17.5615 22.5581 19.0602 21.0593 20.9062 21.0593H24.2508V27.7501H20.9062C19.0602 27.7501 17.5615 26.2513 17.5615 24.4047Z" stroke="white"/>
<path d="M17.5635 16.714C17.5635 14.8673 19.0621 13.3685 20.9081 13.3685H24.2528V20.0594H20.9081C19.0621 20.0594 17.5635 18.5606 17.5635 16.714Z" stroke="white"/>
<path d="M25.2529 13.3685H28.5976C30.4436 13.3685 31.9423 14.8673 31.9423 16.714C31.9423 18.5606 30.4436 20.0594 28.5976 20.0594H25.2529V13.3685Z" stroke="white"/>
<path d="M31.9423 24.4047C31.9423 26.2513 30.4436 27.7501 28.5976 27.7501C26.7516 27.7501 25.2529 26.2513 25.2529 24.4047C25.2529 22.5581 26.7516 21.0593 28.5976 21.0593C30.4436 21.0593 31.9423 22.5581 31.9423 24.4047Z" stroke="white"/>
</svg>
