<svg width="26" height="27" viewBox="0 0 26 27" fill="none" xmlns="http://www.w3.org/2000/svg">
<path fill-rule="evenodd" clip-rule="evenodd" d="M13 3C7.20138 3 2.5 7.70138 2.5 13.5C2.5 19.2986 7.20138 24 13 24C18.7986 24 23.5 19.2986 23.5 13.5C23.5 7.70138 18.7986 3 13 3ZM13 4.75C17.8247 4.75 21.75 8.67525 21.75 13.5C21.75 18.3247 17.8247 22.25 13 22.25C8.17525 22.25 4.25 18.3247 4.25 13.5C4.25 8.67525 8.17525 4.75 13 4.75ZM10.8773 17.6484H7.75V17.4716L8.85338 16.1338C8.97063 16.0121 9.024 15.8406 8.99512 15.6735V11.0325C9.00825 10.9039 8.95925 10.7761 8.863 10.6895L7.88213 9.50825V9.33237H10.9263L13.2791 14.4922L15.3476 9.33237H18.25V9.50825L17.4117 10.3124C17.3391 10.3675 17.3033 10.4576 17.319 10.5478V16.4522C17.3033 16.5424 17.3391 16.6325 17.4117 16.6876L18.2308 17.4918V17.6676H14.113V17.4918L14.9609 16.6684C15.044 16.5853 15.044 16.5608 15.044 16.433V11.6599L12.6859 17.6484H12.3674L9.6225 11.6599V15.6735C9.59975 15.8424 9.65575 16.0121 9.77475 16.1338L10.8773 17.4716V17.6484V17.6484Z" fill="white"/>
</svg>
