<svg width="26" height="27" viewBox="0 0 26 27" fill="none" xmlns="http://www.w3.org/2000/svg">
<path fill-rule="evenodd" clip-rule="evenodd" d="M13.0004 23.9992C18.8013 23.9992 23.5 19.3005 23.5 13.4996H23.4992C23.4992 7.69875 18.8005 3 12.9996 3C7.19875 3 2.5 7.69795 2.5 13.4996C2.5 19.3013 7.19955 23.9992 13.0004 23.9992ZM11.425 13.5005H14.4002V13.5101C15.2672 13.5101 15.9758 12.8014 15.9758 11.9345C15.9758 11.0675 15.2664 10.3589 14.4002 10.3589H11.425V13.5005ZM9.32474 8.26025H14.4002C16.43 8.26025 18.0752 9.90541 18.0752 11.9353C18.0752 13.9651 16.43 15.6103 14.4002 15.6103H11.425V18.7599H9.32474V8.26025Z" fill="white"/>
</svg>
