<svg width="15" height="15" viewBox="0 0 15 15" fill="none" xmlns="http://www.w3.org/2000/svg">
<path d="M7.94911 1.02499C8.05276 1.76167 8.35789 2.56041 8.86449 3.42121C9.37078 4.29329 10.1044 5.10961 11.0654 5.87018C12.015 6.63043 12.9721 7.12559 13.9366 7.35567L13.9168 8.06633C12.9516 8.26522 12.0207 8.65698 11.1238 9.2416C10.2154 9.83719 9.45015 10.561 8.82809 11.4129C8.19412 12.2871 7.78043 13.1561 7.58703 14.0199L6.87636 14.0001C6.79056 13.4333 6.6037 12.8467 6.31579 12.2404C6.02756 11.6453 5.6541 11.0704 5.19542 10.5158C4.72513 9.97209 4.19704 9.47759 3.61112 9.03228C2.73757 8.37575 1.84114 7.93307 0.921804 7.70425L0.941606 6.99359C1.56548 6.88679 2.21553 6.6509 2.89176 6.28591C3.55671 5.92061 4.17858 5.48073 4.75737 4.96627C5.33584 4.46309 5.81358 3.92888 6.19058 3.36364C6.74433 2.53239 7.09362 1.74624 7.23844 1.00519L7.94911 1.02499Z" fill="black"/>
</svg>
