<svg width="129" height="129" viewBox="0 0 129 129" fill="none" xmlns="http://www.w3.org/2000/svg">
<path d="M127.997 72.2505L128.156 70.9674L120.502 67.8596L120.509 67.7985L128.698 66.5834L128.86 65.2697L118.94 66.7349L118.748 68.2929L126.149 71.3227L126.141 71.3838L118.229 72.4936L118.034 74.067L127.299 77.9023L127.456 76.6345L119.777 73.4771L119.784 73.416L127.997 72.2505Z" fill="black"/>
<path d="M126.171 81.3121L116.913 78.5285L116.525 79.826L125.784 82.6096L126.171 81.3121Z" fill="black"/>
<path d="M113.849 86.8509L121.575 90.4054L119.918 94.0291L120.978 94.5167L124.834 86.0801L123.774 85.5925L122.137 89.1742L114.412 85.6197L113.849 86.8509Z" fill="black"/>
<path d="M110.439 93.3007L114.015 95.9305L110.514 100.722L106.938 98.0926L106.14 99.185L113.935 104.918L114.733 103.825L111.442 101.405L114.943 96.613L118.234 99.0336L119.032 97.9411L111.237 92.2083L110.439 93.3007Z" fill="black"/>
<path d="M103.305 113.165L103.257 113.203L99.2368 110.831L101.94 108.702L103.305 113.165ZM95.6243 108.706L94.4899 109.599L103.534 114.804L104.717 113.873L101.755 103.878L100.705 104.705L101.591 107.608L98.2359 110.249L95.6243 108.706Z" fill="black"/>
<path d="M92.0221 121.858L93.1833 121.297L91.6452 113.157L91.7005 113.131L97.1506 119.382L98.3394 118.807L91.7428 111.231L90.3328 111.912L91.7993 119.796L91.744 119.823L86.5314 113.748L85.1076 114.435L86.9075 124.328L88.0548 123.774L86.5449 115.586L86.6002 115.559L92.0221 121.858Z" fill="black"/>
<path d="M74.0502 118.757L79.9647 117.365L80.718 120.587L76.327 121.62L76.5898 122.744L80.9808 121.711L81.6536 124.588L75.8735 125.948L76.1328 127.057L83.1973 125.394L80.9899 115.954L73.7909 117.648L74.0502 118.757Z" fill="black"/>
<path d="M72.372 120.008C71.5987 118.675 69.7791 117.919 67.8639 118.015C65.6882 118.125 64.0559 119.271 64.1436 121.023C64.2259 122.668 65.3774 123.273 67.0192 123.545L68.9085 123.85C70.0385 124.024 70.7602 124.327 70.8041 125.203C70.8564 126.249 70.0123 126.877 68.6946 126.943C67.3003 127.013 66.1763 126.346 65.6353 125.356L64.7629 126.34C65.5077 127.412 66.8807 128.144 68.75 128.05C70.8184 127.946 72.201 126.72 72.1187 125.075C72.044 123.584 70.9024 122.871 69.479 122.665L67.3415 122.311C66.1961 122.137 65.5181 121.786 65.475 120.925C65.4196 119.818 66.4943 119.194 67.9192 119.122C69.3595 119.05 70.8681 119.729 71.5494 121.066L72.372 120.008Z" fill="black"/>
<path d="M51.547 121.829C51.1153 124.767 52.8796 127.113 55.6721 127.526C58.4495 127.937 60.8134 126.202 61.2451 123.263C61.6769 120.324 59.9126 117.978 57.1352 117.567C54.3427 117.154 51.9788 118.89 51.547 121.829ZM52.9281 122.033C53.2704 119.703 54.9011 118.419 56.9652 118.725C59.0293 119.03 60.2063 120.729 59.864 123.059C59.5218 125.388 57.9062 126.674 55.8422 126.369C53.7781 126.064 52.5859 124.363 52.9281 122.033Z" fill="black"/>
<path d="M45.3812 114.702L39.3897 121.476L39.3323 121.454L42.3261 113.539L41.064 113.059L37.6347 122.125L39.6427 122.889L44.8664 116.844L44.9094 116.861L44.9352 124.905L46.9289 125.664L50.3581 116.598L49.182 116.15L46.1882 124.065L46.1309 124.043L46.0409 114.954L45.3812 114.702Z" fill="black"/>
<path d="M32.3053 108.998L37.4428 112.251L35.6824 115.049L31.8683 112.634L31.2542 113.611L35.0683 116.026L33.4963 118.525L28.4756 115.346L27.8697 116.309L34.0061 120.195L39.1644 111.994L32.9112 108.035L32.3053 108.998Z" fill="black"/>
<path d="M20.553 110.24L27.6068 103.611L22.6044 98.2521L21.7535 99.0518L25.833 103.422L19.6301 109.251L20.553 110.24Z" fill="black"/>
<path d="M13.685 102.33L21.5214 96.6545L20.7313 95.5562L12.8948 101.232L13.685 102.33Z" fill="black"/>
<path d="M8.51432 89.1608C7.39857 90.4411 7.25842 92.1649 8.23253 94.0334C9.46972 96.4066 12.2932 97.3394 14.9032 95.9697C17.5404 94.5857 18.4098 91.8365 17.1513 89.4224C16.4332 88.0448 15.1543 87.1526 13.8884 87.348L15.3457 86.3574L14.8906 85.4845L10.663 87.7031L12.9596 92.1085L13.8568 91.6377L12.1219 88.3098C13.6546 87.6965 15.2139 88.1636 16.0743 89.8139C17.027 91.6415 16.3768 93.6156 14.2698 94.7214C12.1491 95.8343 10.1764 95.2715 9.25206 93.4984C8.49837 92.0527 8.76253 90.7328 9.72017 89.8134L8.51432 89.1608Z" fill="black"/>
<path d="M13.5556 81.8986L9.28531 83.0946L7.69315 77.372L11.9634 76.176L11.6005 74.8714L2.29152 77.4786L2.6545 78.7832L6.58494 77.6824L8.1771 83.405L4.24666 84.5058L4.60964 85.8104L13.9186 83.2032L13.5556 81.8986Z" fill="black"/>
<path d="M10.7771 67.5889L2.29866 68.1806L2.02297 64.2037L0.859863 64.2848L1.50171 73.5439L2.66482 73.4627L2.39233 69.5318L10.8708 68.9402L10.7771 67.5889Z" fill="black"/>
<path d="M8.4659 62.0246C9.90563 61.4849 10.9555 59.813 11.184 57.9027C11.4437 55.7326 10.5938 53.925 8.85742 53.7158C7.22763 53.5195 6.43919 54.5563 5.89504 56.134L5.27594 57.9507C4.91399 59.0388 4.49478 59.7015 3.62658 59.5969C2.59082 59.4721 2.11624 58.5313 2.2735 57.217C2.43989 55.8264 3.2856 54.8275 4.3494 54.4596L3.52998 53.4307C2.35102 53.9863 1.39989 55.2205 1.17682 57.085C0.929969 59.1481 1.90047 60.7222 3.53025 60.9185C5.00772 61.0965 5.90096 60.0879 6.34335 58.7149L7.05263 56.661C7.41642 55.5576 7.87583 54.9463 8.7288 55.0491C9.82548 55.1812 10.2574 56.3494 10.0874 57.7706C9.91548 59.2072 8.99359 60.5844 7.56483 61.0324L8.4659 62.0246Z" fill="black"/>
<path d="M6.80268 42.8537C5.96645 42.5062 5.7301 41.7916 6.03536 41.0521C6.35236 40.2842 7.0695 40.1157 7.65061 40.3572C8.44432 40.687 8.6685 41.23 8.73402 42.64C7.98997 42.9139 7.39796 43.1011 6.80268 42.8537ZM13.2827 44.6136C12.86 45.6375 11.9736 46.1354 11.024 45.7408C10.0602 45.3403 9.82045 44.6742 9.70252 43.5923L13.371 42.2679L13.411 42.2512C13.6039 43.0311 13.6056 43.8314 13.2827 44.6136ZM16.0659 40.4056C16.2126 40.0501 16.2837 39.5965 16.2476 39.2816L15.4822 38.9635C15.4416 39.2632 15.3618 39.4966 15.2737 39.7099C15.0331 40.293 14.6229 40.5223 13.913 40.7938C13.3468 39.7922 12.5602 38.8821 11.5945 38.1643L11.0893 39.1872C11.8492 39.7196 12.4961 40.4049 12.9343 41.1535L9.62668 42.3279C9.50748 40.6457 9.15146 39.6981 8.08845 39.2563C6.94041 38.7792 5.74952 39.2506 5.15661 40.6869C4.57544 42.0947 5.07162 43.4671 6.3614 44.0031C7.16928 44.3389 7.90302 44.2106 8.80398 43.9186C8.96528 45.4184 9.36869 46.4524 10.5593 46.9471C12.1042 47.5891 13.5396 46.6862 14.2264 45.0224C14.6608 43.9701 14.6279 42.9235 14.3614 41.8798C15.3612 41.4289 15.7958 41.0598 16.0659 40.4056Z" fill="black"/>
<path d="M12.8675 26.7069L11.9445 27.8781L19.5259 33.8924L20.2966 32.9144L14.0871 27.9884L23.8742 28.3746L24.5688 27.4932L16.9874 21.4789L16.2167 22.4569L22.0892 27.1156L12.8675 26.7069Z" fill="black"/>
<path d="M19.7664 18.6619L26.4498 25.6665L27.425 24.7299L20.7415 17.7252L19.7664 18.6619Z" fill="black"/>
<path d="M33.5287 15.4866C34.1281 16.9509 33.8528 18.2513 32.4347 19.2783C30.8426 20.4314 28.7934 20.0552 27.4106 18.1332C26.0279 16.2113 26.3047 14.1504 27.9467 12.9612C29.203 12.0513 30.5178 12.1431 31.5954 12.9573L32.0725 11.7006C30.6591 10.7879 28.9027 10.845 27.2732 12.0252C25.0591 13.6288 24.5547 16.5568 26.2787 18.953C28.0026 21.3492 30.9438 21.7819 33.1082 20.2143C34.9367 18.89 35.4574 17.0891 34.8761 15.3081L33.5287 15.4866Z" fill="black"/>
<path d="M44.384 12.3778L38.881 14.9597L37.4838 11.962L41.5694 10.0451L41.0821 8.99935L36.9964 10.9162L35.7487 8.23918L41.1268 5.71594L40.6459 4.68416L34.0727 7.76812L38.1667 16.5522L44.8649 13.4095L44.384 12.3778Z" fill="black"/>
<path d="M56.6394 10.3392L58.5471 1.48749L58.6078 1.47828L59.8702 9.84863L61.205 9.64597L59.759 0.0581055L57.6354 0.380525L56.0404 8.21955L55.9949 8.22646L52.0383 1.23033L49.9299 1.55045L51.376 11.1383L52.6198 10.9495L51.3573 2.57911L51.418 2.5699L55.9416 10.4451L56.6394 10.3392Z" fill="black"/>
<path d="M67.8502 1.54146L67.9115 1.54478L69.3774 5.98664L65.9461 5.80048L67.8502 1.54146ZM70.6989 9.97364L72.1389 10.0518L68.7545 0.156958L67.2532 0.0755107L62.917 9.55144L64.2498 9.62375L65.4898 6.85474L69.7484 7.08578L70.6989 9.97364Z" fill="black"/>
<path d="M77.9635 11.3592L79.999 3.08013L83.8566 4.0349L84.1359 2.89915L75.1545 0.676252L74.8752 1.81201L78.6882 2.75572L76.6528 11.0348L77.9635 11.3592Z" fill="black"/>
<path d="M90.8154 15.0173L85.2934 12.4765L86.6682 9.46842L90.768 11.3547L91.2476 10.3054L87.1478 8.41909L88.3756 5.7328L93.7722 8.21582L94.2454 7.18048L87.6496 4.14567L83.6209 12.9601L90.3422 16.0526L90.8154 15.0173Z" fill="black"/>
<path d="M98.4316 10.9339L100.757 12.5666C102.077 13.4933 102.317 14.3571 101.719 15.2146C101.085 16.1225 100.158 16.11 98.8255 15.1745L96.5756 13.5948L98.4316 10.9339ZM99.3389 22.0354L99.4005 21.9471C99.1579 21.3823 99.2144 20.7644 99.9281 19.3117C100.45 18.2688 100.47 17.1932 99.6613 16.419C100.749 17.0885 102.177 16.9458 102.864 15.9622C103.814 14.6003 103.46 13.0934 101.487 11.7078L97.9803 9.24555L92.4387 17.1903L93.5322 17.9581L95.9599 14.4775L98.3228 16.1367C99.4289 16.9134 99.3787 17.8175 98.6084 19.1365C98.0995 20.0003 97.852 20.7847 98.0192 21.1087L99.3389 22.0354Z" fill="black"/>
<path d="M106.94 16.0184L100.411 23.1676L101.406 24.0827L107.936 16.9335L106.94 16.0184Z" fill="black"/>
<path d="M112.307 23.5612L112.346 23.6084L110.115 27.7172L107.906 25.076L112.307 23.5612ZM108.116 31.4094L109.043 32.5177L113.932 23.2777L112.966 22.1222L103.107 25.4196L103.965 26.4454L106.827 25.462L109.568 28.7399L108.116 31.4094Z" fill="black"/>
<path d="M118.099 28.7552L109.742 33.6257L113.417 39.9745L114.425 39.3869L111.428 34.2094L118.777 29.9265L118.099 28.7552Z" fill="black"/>
<path d="M115.795 40.0468C114.756 41.1832 114.576 43.151 115.237 44.9574C115.987 47.0094 117.561 48.2334 119.203 47.6293C120.744 47.0623 120.978 45.7796 120.75 44.1259L120.48 42.225C120.31 41.0906 120.384 40.3093 121.205 40.0072C122.185 39.6469 123.033 40.2693 123.487 41.5121C123.968 42.8271 123.666 44.1022 122.884 44.9144L124.08 45.4582C124.879 44.4264 125.169 42.8936 124.524 41.1305C123.811 39.1796 122.235 38.2186 120.693 38.7856C119.296 39.2996 118.956 40.6051 119.183 42.03L119.48 44.1832C119.655 45.3321 119.522 46.0859 118.715 46.3827C117.678 46.7642 116.765 45.9198 116.274 44.5758C115.777 43.2174 115.976 41.5704 117.047 40.5208L115.795 40.0468Z" fill="black"/>
</svg>
